<?xml version="1.0" encoding="UTF-8" standalone="no"?>
<!-- Generator: Adobe Illustrator 18.1.0, SVG Export Plug-In . SVG Version: 6.00 Build 0)  -->

<svg
   xmlns:dc="http://purl.org/dc/elements/1.1/"
   xmlns:cc="http://creativecommons.org/ns#"
   xmlns:rdf="http://www.w3.org/1999/02/22-rdf-syntax-ns#"
   xmlns:svg="http://www.w3.org/2000/svg"
   xmlns="http://www.w3.org/2000/svg"
   xmlns:sodipodi="http://sodipodi.sourceforge.net/DTD/sodipodi-0.dtd"
   xmlns:inkscape="http://www.inkscape.org/namespaces/inkscape"
   version="1.1"
   id="Layer_1"
   x="0px"
   y="0px"
   viewBox="0 0 78.589001 78.591004"
   xml:space="preserve"
   inkscape:version="0.91 r13725"
   sodipodi:docname="dice-btn.svg"
   width="78.588997"
   height="78.591003"><metadata
     id="metadata3470"><rdf:RDF><cc:Work
         rdf:about=""><dc:format>image/svg+xml</dc:format><dc:type
           rdf:resource="http://purl.org/dc/dcmitype/StillImage" /><dc:title></dc:title></cc:Work></rdf:RDF></metadata><defs
     id="defs3468" /><sodipodi:namedview
     pagecolor="#ffffff"
     bordercolor="#666666"
     borderopacity="1"
     objecttolerance="10"
     gridtolerance="10"
     guidetolerance="10"
     inkscape:pageopacity="0"
     inkscape:pageshadow="2"
     inkscape:window-width="1366"
     inkscape:window-height="768"
     id="namedview3466"
     showgrid="false"
     fit-margin-top="0"
     fit-margin-left="0"
     fit-margin-right="0"
     fit-margin-bottom="0"
     inkscape:zoom="5.2805964"
     inkscape:cx="39.294998"
     inkscape:cy="25.472001"
     inkscape:window-x="0"
     inkscape:window-y="0"
     inkscape:window-maximized="0"
     inkscape:current-layer="Layer_1" /><g
     id="g3482"><path
       style="fill:#ffffff"
       d="M 70.851,0 7.732,0 C 3.461,0 0,3.461 0,7.735 l 0,63.121 c 0,4.274 3.461,7.735 7.732,7.735 l 63.119,0 c 4.271,0 7.738,-3.461 7.738,-7.735 l 0,-63.121 C 78.59,3.461 75.122,0 70.851,0 Z M 17.459,71.77 c -4.947,0 -8.95,-4.008 -8.95,-8.952 0,-4.944 4.003,-8.95 8.95,-8.95 4.947,0 8.957,4.006 8.957,8.95 0,4.944 -4.011,8.952 -8.957,8.952 z M 17.9,24.722 c -4.947,0 -8.957,-4.005 -8.957,-8.952 0,-4.94 4.01,-8.949 8.957,-8.949 4.947,0 8.95,4.008 8.95,8.949 0,4.947 -4.003,8.952 -8.95,8.952 z M 60.69,71.77 c -4.947,0 -8.95,-4.008 -8.95,-8.952 0,-4.944 4.003,-8.95 8.95,-8.95 4.933,0 8.95,4.006 8.95,8.95 0,4.944 -4.017,8.952 -8.95,8.952 z m 0.435,-47.048 c -4.94,0 -8.95,-4.005 -8.95,-8.952 0,-4.94 4.01,-8.949 8.95,-8.949 4.947,0 8.95,4.008 8.95,8.949 0,4.947 -4.003,8.952 -8.95,8.952 z"
       id="path3446"
       inkscape:connector-curvature="0" /></g></svg>