<?xml version="1.0" encoding="iso-8859-1"?>
<!-- Generator: Adobe Illustrator 18.1.0, SVG Export Plug-In . SVG Version: 6.00 Build 0)  -->
<svg version="1.1" id="Layer_1" xmlns="http://www.w3.org/2000/svg" xmlns:xlink="http://www.w3.org/1999/xlink" x="0px" y="0px"
	 viewBox="0 0 78.59 106.238" style="enable-background:new 0 0 78.59 106.238;" xml:space="preserve">
<g>
	<path style="fill:#EA2E3C;" d="M70.851,0H7.732C3.461,0,0,3.461,0,7.735v63.121c0,4.274,3.461,7.735,7.732,7.735h63.119
		c4.271,0,7.738-3.461,7.738-7.735V7.735C78.59,3.461,75.122,0,70.851,0z M17.459,71.77c-4.947,0-8.95-4.008-8.95-8.952
		s4.003-8.95,8.95-8.95c4.947,0,8.957,4.006,8.957,8.95S22.405,71.77,17.459,71.77z M17.9,24.722c-4.947,0-8.957-4.005-8.957-8.952
		c0-4.94,4.01-8.949,8.957-8.949c4.947,0,8.95,4.008,8.95,8.949C26.85,20.717,22.847,24.722,17.9,24.722z M60.69,71.77
		c-4.947,0-8.95-4.008-8.95-8.952s4.003-8.95,8.95-8.95c4.933,0,8.95,4.006,8.95,8.95S65.623,71.77,60.69,71.77z M61.125,24.722
		c-4.94,0-8.95-4.005-8.95-8.952c0-4.94,4.01-8.949,8.95-8.949c4.947,0,8.95,4.008,8.95,8.949
		C70.075,20.717,66.072,24.722,61.125,24.722z"/>
	<g>
		<path style="fill:#FFFFFF;" d="M1.013,96.264h4.482c1.246,0,2.213,0.351,2.857,0.995c0.546,0.546,0.841,1.316,0.841,2.241v0.027
			c0,1.583-0.854,2.577-2.102,3.04l2.396,3.502H6.966l-2.102-3.138H3.17v3.138H1.013V96.264z M5.355,101.027
			c1.051,0,1.653-0.561,1.653-1.387v-0.028c0-0.924-0.645-1.4-1.695-1.4H3.17v2.815H5.355z"/>
		<path style="fill:#FFFFFF;" d="M10.7,101.195v-0.028c0-2.787,2.199-5.07,5.225-5.07c3.026,0,5.197,2.255,5.197,5.043v0.027
			c0,2.788-2.199,5.071-5.225,5.071S10.7,103.983,10.7,101.195z M18.867,101.195v-0.028c0-1.681-1.233-3.081-2.97-3.081
			c-1.737,0-2.941,1.373-2.941,3.054v0.027c0,1.682,1.232,3.082,2.969,3.082C17.662,104.248,18.867,102.875,18.867,101.195z"/>
		<path style="fill:#FFFFFF;" d="M23.034,96.264h2.157v7.845h4.889v1.961h-7.046V96.264z"/>
		<path style="fill:#FFFFFF;" d="M31.7,96.264h2.157v7.845h4.889v1.961H31.7V96.264z"/>
		<path style="fill:#FFFFFF;" d="M44.567,96.264h3.824c3.081,0,5.211,2.115,5.211,4.875v0.027c0,2.76-2.13,4.903-5.211,4.903h-3.824
			V96.264z M48.391,104.122c1.765,0,2.955-1.19,2.955-2.928v-0.028c0-1.736-1.19-2.955-2.955-2.955h-1.667v5.911H48.391z"/>
		<path style="fill:#FFFFFF;" d="M55.613,96.264h2.157v9.806h-2.157V96.264z"/>
		<path style="fill:#FFFFFF;" d="M59.784,101.195v-0.028c0-2.787,2.102-5.07,5.113-5.07c1.849,0,2.955,0.616,3.866,1.513
			l-1.373,1.583c-0.757-0.687-1.527-1.106-2.508-1.106c-1.652,0-2.843,1.373-2.843,3.054v0.027c0,1.682,1.162,3.082,2.843,3.082
			c1.121,0,1.808-0.448,2.578-1.148l1.372,1.387c-1.008,1.078-2.129,1.751-4.02,1.751C61.928,106.238,59.784,104.01,59.784,101.195z
			"/>
		<path style="fill:#FFFFFF;" d="M70.551,96.264h7.396v1.919h-5.253v1.989h4.623v1.919h-4.623v2.06h5.323v1.919h-7.466V96.264z"/>
	</g>
</g>
</svg>
