<?xml version="1.0" encoding="iso-8859-1"?>
<!-- Generator: Adobe Illustrator 18.1.0, SVG Export Plug-In . SVG Version: 6.00 Build 0)  -->
<svg version="1.1" id="Layer_1" xmlns="http://www.w3.org/2000/svg" xmlns:xlink="http://www.w3.org/1999/xlink" x="0px" y="0px"
	 viewBox="0 0 29.86 29.914" style="enable-background:new 0 0 29.86 29.914;" xml:space="preserve">
<g>
	<path style="opacity:0.4;fill:#FFFFFF;" d="M29.859,26.02c0,2.151-1.743,3.895-3.895,3.895H3.895C1.743,29.914,0,28.171,0,26.02
		V3.895C0,1.744,1.743,0,3.895,0h22.07c2.151,0,3.895,1.744,3.895,3.895V26.02z"/>
	<path style="fill:#FFFFFF;" d="M14.928,8.776l1.798,3.639l0.303,0.615l0.678,0.099l4.016,0.584l-2.906,2.833l-0.492,0.478
		l0.118,0.677l0.685,4.001l-3.592-1.887l-0.609-0.321l-0.606,0.321l-3.593,1.887l0.686-4.001l0.115-0.677l-0.489-0.478l-2.907-2.833
		l4.016-0.584l0.68-0.099l0.303-0.615L14.928,8.776L14.928,8.776z M14.928,5.829l-2.964,6.01l-6.632,0.964l4.798,4.677l-1.133,6.605
		l5.931-3.118l5.931,3.118l-1.133-6.605l4.801-4.677l-6.632-0.964L14.928,5.829L14.928,5.829z"/>
</g>
</svg>
