<?xml version="1.0" encoding="iso-8859-1"?>
<!-- Generator: Adobe Illustrator 18.1.0, SVG Export Plug-In . SVG Version: 6.00 Build 0)  -->
<svg version="1.1" id="Layer_1" xmlns="http://www.w3.org/2000/svg" xmlns:xlink="http://www.w3.org/1999/xlink" x="0px" y="0px"
	 viewBox="0 0 40.077 40.077" style="enable-background:new 0 0 40.077 40.077;" xml:space="preserve">
<g>
	<circle style="opacity:0.4;fill:#FFFFFF;" cx="20.038" cy="20.038" r="20.038"/>
	<g>
		<circle style="fill:#FFFFFF;" cx="20.054" cy="30.296" r="2.255"/>
		<path style="fill:#FFFFFF;" d="M22.137,23.705c0,0.117,0,1.733,0,1.733h-4.301c0,0,0-1.616,0-1.733c0-3.817,5.69-5.32,5.69-8.326
			c0-1.85-0.839-3.121-3.472-3.121c-2.629,0-3.469,1.675-3.469,3.121c0,0.042,0,0.183,0,0.347h-3.641
			c0-0.164,0.008-0.758,0.023-0.957c0.285-3.83,3.271-6.153,7.087-6.156c4.017,0.003,7.079,2.314,7.079,6.766
			C27.133,19.165,22.137,21.072,22.137,23.705z"/>
	</g>
</g>
</svg>
